<svg id="visual" viewBox="0 0 960 540" width="960" height="540" xmlns="http://www.w3.org/2000/svg" xmlns:xlink="http://www.w3.org/1999/xlink" version="1.1"><rect x="0" y="0" width="960" height="540" fill="#ffffff"></rect><path d="M0 330L137 385L274 332L411 379L549 321L686 344L823 383L960 319L960 541L823 541L686 541L549 541L411 541L274 541L137 541L0 541Z" fill="#eba4a4"></path><path d="M0 373L137 379L274 390L411 354L549 403L686 427L823 403L960 363L960 541L823 541L686 541L549 541L411 541L274 541L137 541L0 541Z" fill="#d77f7b"></path><path d="M0 454L137 410L274 413L411 439L549 445L686 400L823 453L960 405L960 541L823 541L686 541L549 541L411 541L274 541L137 541L0 541Z" fill="#c15a53"></path><path d="M0 459L137 459L274 482L411 483L549 485L686 440L823 465L960 472L960 541L823 541L686 541L549 541L411 541L274 541L137 541L0 541Z" fill="#a7352b"></path><path d="M0 515L137 510L274 472L411 487L549 477L686 489L823 488L960 512L960 541L823 541L686 541L549 541L411 541L274 541L137 541L0 541Z" fill="#8b0000"></path></svg>