<svg id="visual" viewBox="0 0 960 540" width="960" height="540" xmlns="http://www.w3.org/2000/svg" xmlns:xlink="http://www.w3.org/1999/xlink" version="1.1"><rect x="0" y="0" width="960" height="540" fill="#000000"></rect><path d="M0 388L22.8 385C45.7 382 91.3 376 137 378.3C182.7 380.7 228.3 391.3 274 386.7C319.7 382 365.3 362 411.2 362.3C457 362.7 503 383.3 548.8 392.5C594.7 401.7 640.3 399.3 686 396.2C731.7 393 777.3 389 823 377.3C868.7 365.7 914.3 346.3 937.2 336.7L960 327L960 541L937.2 541C914.3 541 868.7 541 823 541C777.3 541 731.7 541 686 541C640.3 541 594.7 541 548.8 541C503 541 457 541 411.2 541C365.3 541 319.7 541 274 541C228.3 541 182.7 541 137 541C91.3 541 45.7 541 22.8 541L0 541Z" fill="#fa7268"></path><path d="M0 423L22.8 414.2C45.7 405.3 91.3 387.7 137 385C182.7 382.3 228.3 394.7 274 401.7C319.7 408.7 365.3 410.3 411.2 411.5C457 412.7 503 413.3 548.8 407.2C594.7 401 640.3 388 686 381.7C731.7 375.3 777.3 375.7 823 380.5C868.7 385.3 914.3 394.7 937.2 399.3L960 404L960 541L937.2 541C914.3 541 868.7 541 823 541C777.3 541 731.7 541 686 541C640.3 541 594.7 541 548.8 541C503 541 457 541 411.2 541C365.3 541 319.7 541 274 541C228.3 541 182.7 541 137 541C91.3 541 45.7 541 22.8 541L0 541Z" fill="#df594e"></path><path d="M0 446L22.8 447.2C45.7 448.3 91.3 450.7 137 451.5C182.7 452.3 228.3 451.7 274 451.8C319.7 452 365.3 453 411.2 448.8C457 444.7 503 435.3 548.8 428C594.7 420.7 640.3 415.3 686 417.2C731.7 419 777.3 428 823 435.3C868.7 442.7 914.3 448.3 937.2 451.2L960 454L960 541L937.2 541C914.3 541 868.7 541 823 541C777.3 541 731.7 541 686 541C640.3 541 594.7 541 548.8 541C503 541 457 541 411.2 541C365.3 541 319.7 541 274 541C228.3 541 182.7 541 137 541C91.3 541 45.7 541 22.8 541L0 541Z" fill="#c34034"></path><path d="M0 436L22.8 437C45.7 438 91.3 440 137 441C182.7 442 228.3 442 274 447.2C319.7 452.3 365.3 462.7 411.2 467.5C457 472.3 503 471.7 548.8 473.2C594.7 474.7 640.3 478.3 686 477C731.7 475.7 777.3 469.3 823 468.2C868.7 467 914.3 471 937.2 473L960 475L960 541L937.2 541C914.3 541 868.7 541 823 541C777.3 541 731.7 541 686 541C640.3 541 594.7 541 548.8 541C503 541 457 541 411.2 541C365.3 541 319.7 541 274 541C228.3 541 182.7 541 137 541C91.3 541 45.7 541 22.8 541L0 541Z" fill="#a7261b"></path><path d="M0 484L22.8 486C45.7 488 91.3 492 137 492.3C182.7 492.7 228.3 489.3 274 491.2C319.7 493 365.3 500 411.2 503.5C457 507 503 507 548.8 504.2C594.7 501.3 640.3 495.7 686 493.8C731.7 492 777.3 494 823 492.8C868.7 491.7 914.3 487.3 937.2 485.2L960 483L960 541L937.2 541C914.3 541 868.7 541 823 541C777.3 541 731.7 541 686 541C640.3 541 594.7 541 548.8 541C503 541 457 541 411.2 541C365.3 541 319.7 541 274 541C228.3 541 182.7 541 137 541C91.3 541 45.7 541 22.8 541L0 541Z" fill="#8b0000"></path></svg>